# Blender v2.71 (sub 0) OBJ File: 'in_ex-form_base.blend'
# www.blender.org
mtllib in_ex-form_base.mtl
o Plane
v -0.640000 0.000000 0.640000
v 0.640000 0.000000 0.640000
v -0.640000 0.000000 -0.640000
v 0.640000 0.000000 -0.640000
v -0.640000 0.053563 0.640000
v 0.640000 0.053563 0.640000
v -0.640000 0.053563 -0.640000
v 0.640000 0.053563 -0.640000
v 0.480000 0.305192 0.480000
v 0.480000 0.053563 0.480000
v -0.480000 0.053563 0.480000
v -0.480000 0.053563 -0.480000
v 0.480000 0.053563 -0.480000
v -0.480000 0.305192 -0.480000
v 0.480000 0.305192 -0.480000
v -0.480000 0.305192 0.480000
v 0.480000 0.053563 -0.480000
v -0.480000 0.053563 -0.480000
v -0.480000 0.053563 0.480000
v 0.480000 0.053563 0.480000
vn 0.000000 -1.000000 0.000000
vn 0.000000 0.000000 -1.000000
vn 1.000000 0.000000 0.000000
vn 0.000000 0.000000 1.000000
vn -1.000000 0.000000 0.000000
vn 0.000000 1.000000 0.000000
usemtl None
s off
f 3//1 4//1 2//1
f 3//2 7//2 8//2
f 4//3 8//3 6//3
f 2//4 6//4 5//4
f 1//5 5//5 7//5
f 5//6 6//6 20//6
f 11//5 16//5 14//5
f 13//4 17//4 10//4
f 12//4 18//4 17//4
f 19//4 11//4 18//4
f 17//3 15//3 9//3
f 20//4 10//4 11//4
f 9//6 15//6 14//6
f 10//4 9//4 16//4
f 18//2 14//2 15//2
f 12//6 13//6 8//6
f 19//6 12//6 7//6
f 13//6 20//6 6//6
f 1//1 3//1 2//1
f 4//2 3//2 8//2
f 2//3 4//3 6//3
f 1//4 2//4 5//4
f 3//5 1//5 7//5
f 19//6 5//6 20//6
f 18//5 11//5 14//5
f 20//4 13//4 10//4
f 13//4 12//4 17//4
f 12//4 19//4 18//4
f 10//3 17//3 9//3
f 19//4 20//4 11//4
f 16//6 9//6 14//6
f 11//4 10//4 16//4
f 17//2 18//2 15//2
f 7//6 12//6 8//6
f 5//6 19//6 7//6
f 8//6 13//6 6//6
